<?xml version="1.0" encoding="iso-8859-1"?>
<!-- Generator: Adobe Illustrator 19.0.0, SVG Export Plug-In . SVG Version: 6.00 Build 0)  -->
<svg version="1.1" id="Layer_1" xmlns="http://www.w3.org/2000/svg" xmlns:xlink="http://www.w3.org/1999/xlink" x="0px" y="0px"
	 viewBox="0 0 512.002 512.002" style="enable-background:new 0 0 512.002 512.002;" xml:space="preserve">
<g>
	<g>
		<g>
			<path d="M375.25,221.868h-22.101c-6.818-22.835-20.258-42.829-38.144-57.702l-2.236-44.698H165.1l-2.236,44.501
				c-24.439,20.233-40.789,49.937-43.179,83.499h33.698c4.71,0,8.533,3.823,8.533,8.533s-3.823,8.533-8.533,8.533h-33.698
				c2.372,33.348,18.534,62.882,42.726,83.106l2.253,44.894h147.669l2.227-44.297c18.108-14.916,31.71-35.072,38.588-58.103h22.101
				c9.412,0,17.067-7.654,17.067-17.067v-34.133C392.317,229.522,384.662,221.868,375.25,221.868z M230.183,153.959
				c2.739-0.23,5.513-0.35,8.286-0.358h0.7c1.05,0.008,2.082,0.094,3.115,0.162l1.766,0.119c1.075,0.051,2.133,0.196,3.2,0.282
				v16.503c0,4.71-3.823,8.533-8.533,8.533s-8.533-3.823-8.533-8.533V153.959z M247.25,358.042c-2.739,0.23-5.513,0.35-8.286,0.358
				c-0.247-0.009-0.461-0.009-0.7,0c-1.05-0.009-2.082-0.094-3.115-0.162l-1.766-0.119c-1.075-0.051-2.133-0.196-3.2-0.282v-16.503
				c0-4.71,3.823-8.533,8.533-8.533s8.533,3.823,8.533,8.533V358.042z M272.85,264.534h-34.133c-4.71,0-8.533-3.823-8.533-8.533
				v-51.2c0-4.71,3.823-8.533,8.533-8.533s8.533,3.823,8.533,8.533v42.667h25.6c4.71,0,8.533,3.823,8.533,8.533
				S277.56,264.534,272.85,264.534z M340.588,264.534H324.05c-4.71,0-8.533-3.823-8.533-8.533s3.823-8.533,8.533-8.533h16.538
				c0.256,2.867,0.529,5.734,0.529,8.533C341.117,258.8,340.844,261.667,340.588,264.534z M375.25,273.068h-18.355
				c0.085-0.589,0.12-1.178,0.196-1.766c0.213-1.698,0.427-3.405,0.572-5.137c0.316-3.413,0.521-6.81,0.521-10.163
				c0-3.354-0.205-6.75-0.521-10.163c-0.145-1.732-0.358-3.439-0.572-5.137c-0.077-0.597-0.111-1.178-0.196-1.766h18.355V273.068z"
				/>
			<polygon points="309.35,51.201 168.525,51.201 167.663,68.268 310.204,68.268 			"/>
			<polygon points="311.058,85.334 166.81,85.334 165.957,102.401 311.92,102.401 			"/>
			<path d="M307.596,16.213C307.135,7.125,299.651,0,290.546,0H187.319c-9.105,0-16.589,7.125-17.041,16.213l-0.904,17.92h139.119
				L307.596,16.213z"/>
			<polygon points="168.084,460.801 308.909,460.801 309.771,443.734 167.23,443.734 			"/>
			<polygon points="166.375,426.668 310.623,426.668 311.476,409.601 165.513,409.601 			"/>
			<path d="M169.837,495.788c0.461,9.088,7.945,16.213,17.05,16.213h103.228c9.105,0,16.589-7.125,17.041-16.213l0.905-17.92
				H168.941L169.837,495.788z"/>
		</g>
	</g>
</g>
<g>
</g>
<g>
</g>
<g>
</g>
<g>
</g>
<g>
</g>
<g>
</g>
<g>
</g>
<g>
</g>
<g>
</g>
<g>
</g>
<g>
</g>
<g>
</g>
<g>
</g>
<g>
</g>
<g>
</g>
</svg>
