<?xml version="1.0" encoding="UTF-8" standalone="no"?>
<!-- Generator: Adobe Illustrator 17.1.0, SVG Export Plug-In . SVG Version: 6.00 Build 0)  -->

<svg
   xmlns:dc="http://purl.org/dc/elements/1.1/"
   xmlns:cc="http://creativecommons.org/ns#"
   xmlns:rdf="http://www.w3.org/1999/02/22-rdf-syntax-ns#"
   xmlns:svg="http://www.w3.org/2000/svg"
   xmlns="http://www.w3.org/2000/svg"
   xmlns:sodipodi="http://sodipodi.sourceforge.net/DTD/sodipodi-0.dtd"
   xmlns:inkscape="http://www.inkscape.org/namespaces/inkscape"
   version="1.1"
   id="Capa_1"
   x="0px"
   y="0px"
   viewBox="0 0 511 511"
   style="enable-background:new 0 0 511 511;"
   xml:space="preserve"
   sodipodi:docname="bag.svg"
   inkscape:version="0.92.3 (2405546, 2018-03-11)"><metadata
   id="metadata1264"><rdf:RDF><cc:Work
       rdf:about=""><dc:format>image/svg+xml</dc:format><dc:type
         rdf:resource="http://purl.org/dc/dcmitype/StillImage" /></cc:Work></rdf:RDF></metadata><defs
   id="defs1262" /><sodipodi:namedview
   pagecolor="#ffffff"
   bordercolor="#666666"
   borderopacity="1"
   objecttolerance="10"
   gridtolerance="10"
   guidetolerance="10"
   inkscape:pageopacity="0"
   inkscape:pageshadow="2"
   inkscape:window-width="1024"
   inkscape:window-height="688"
   id="namedview1260"
   showgrid="false"
   inkscape:zoom="0.84610445"
   inkscape:cx="255.5"
   inkscape:cy="255.5"
   inkscape:window-x="0"
   inkscape:window-y="0"
   inkscape:window-maximized="1"
   inkscape:current-layer="Capa_1" />
<path
   d="M445.663,469.921l-14.362-359.041C430.968,102.537,424.165,96,415.814,96H351v-0.5C351,42.841,308.159,0,255.5,0  S160,42.841,160,95.5V96H95.187c-8.351,0-15.153,6.536-15.488,14.88L65.337,469.921c-0.434,10.842,3.468,21.122,10.985,28.946  C83.84,506.691,93.956,511,104.806,511h301.389c10.851,0,20.966-4.309,28.484-12.133  C442.195,491.042,446.097,480.763,445.663,469.921z M175,95.5c0-44.388,36.112-80.5,80.5-80.5S336,51.112,336,95.5V96H175V95.5z   M423.862,488.474c-4.663,4.853-10.938,7.526-17.667,7.526H104.806c-6.73,0-13.004-2.672-17.667-7.525  c-4.663-4.853-7.083-11.229-6.813-17.954L94.687,111.48c0.011-0.27,0.23-0.48,0.5-0.48H160v48.5c0,4.142,3.358,7.5,7.5,7.5  s7.5-3.358,7.5-7.5V111h161v48.5c0,4.142,3.358,7.5,7.5,7.5s7.5-3.358,7.5-7.5V111h64.814c0.269,0,0.488,0.21,0.499,0.48  l14.362,359.041C430.944,477.245,428.524,483.621,423.862,488.474z"
   id="path1227"
   style="fill:#ffffff" />
<g
   id="g1229">
</g>
<g
   id="g1231">
</g>
<g
   id="g1233">
</g>
<g
   id="g1235">
</g>
<g
   id="g1237">
</g>
<g
   id="g1239">
</g>
<g
   id="g1241">
</g>
<g
   id="g1243">
</g>
<g
   id="g1245">
</g>
<g
   id="g1247">
</g>
<g
   id="g1249">
</g>
<g
   id="g1251">
</g>
<g
   id="g1253">
</g>
<g
   id="g1255">
</g>
<g
   id="g1257">
</g>
</svg>